<?xml version="1.0" encoding="UTF-8"?>
<svg width="248px" height="24px" viewBox="0 0 248 24" version="1.1" xmlns="http://www.w3.org/2000/svg" xmlns:xlink="http://www.w3.org/1999/xlink">
    <title>logo / springernature-standarrd</title>
    <g id="logo-/-springernature-standarrd" stroke="none" stroke-width="1" fill="none" fill-rule="evenodd">
        <g id="SpringerNature" fill="#01324B">
            <path d="M133.642747,9.40194505 C133.642747,4.44377301 129.401342,2.67850061 125.433794,2.67850061 C123.40815,2.67850061 120.361761,2.67850061 118.605448,2.73741856 L118.605448,23.3609669 L123.743117,23.3609669 L123.743117,17.0658106 L125.304787,17.0658106 C125.617121,17.0658106 125.911348,17.0544802 126.182943,17.0363516 L126.223682,17.0318195 L126.248579,17.0658106 C127.101839,18.4277217 128.188218,20.6212822 128.536765,23.3609669 C129.663883,23.3609669 130.539776,23.3609669 131.277609,23.365499 C131.820799,23.365499 132.2893,23.365499 132.728378,23.365499 L132.732904,23.365499 C133.221775,23.365499 133.676696,23.365499 134.158777,23.3609669 C133.681223,20.2065905 131.963386,17.0454159 130.967538,15.4342366 L130.938115,15.3753187 L130.985645,15.3413275 C132.698955,13.9771504 133.642747,11.8697007 133.642747,9.40194505 L133.642747,9.40194505 Z M128.192745,10.1225569 C128.192745,12.2504013 127.291955,13.1998867 125.273101,13.1998867 C124.6258,13.1998867 124.200301,13.1998867 123.808752,13.1681616 L123.743117,13.1636295 L123.743117,6.58521386 L123.811015,6.58068171 C124.265937,6.54895666 124.858919,6.54895666 125.336473,6.54895666 C127.715191,6.54895666 128.192745,7.91539987 128.192745,10.1225569 L128.192745,10.1225569 Z M114.825754,23.3609669 L114.825754,19.3273534 L107.451955,19.3273534 L107.451955,14.7952035 L114.112818,14.7952035 L114.112818,10.8046455 L107.451955,10.8046455 L107.451955,6.73477481 L114.728433,6.73477481 L114.728433,2.71022566 L102.53601,2.71022566 L102.53601,19.7057879 C102.53601,19.7239165 102.506667,21.3373619 103.579466,22.4432065 C104.247137,23.1388915 105.202245,23.4923992 106.415368,23.4969314 C110.154324,23.5195921 114.248615,23.3836276 114.825754,23.3609669 L114.825754,23.3609669 Z M91.7945152,24 C93.7907369,24 96.7941227,23.485601 99.0325165,22.3344349 L99.0325165,12.0668492 L92.2562263,12.0668492 L92.2562263,15.5905958 L94.3950354,15.5905958 L94.3950354,19.8054952 L94.3475063,19.8236238 C93.8314762,20.009442 92.6002464,20.1068832 92.0864796,20.1068832 C89.3727949,20.1068832 88.3158385,18.1014069 88.3158385,12.9642149 C88.3158385,8.44792749 89.8775086,6.25436692 93.089117,6.25436692 C94.1619165,6.25436692 95.7281132,6.73250873 97.3961579,7.5686904 L98.7880812,4.12652252 C96.9231303,2.95496176 94.4946201,2.25701067 92.2811225,2.25701067 C89.1668355,2.25701067 86.9216518,3.12944953 85.416564,4.92644698 C83.9227926,6.71211406 83.1985398,9.3611557 83.1985398,13.0253989 C83.1985398,21.0269096 85.5297285,24 91.7945152,24 L91.7945152,24 Z M74.4712936,23.3609669 L79.8873466,23.3609669 L79.8873466,2.71022566 L75.340397,2.71022566 L75.340397,16.2205646 L69.1865115,2.71022566 L63.5667625,2.71022566 L63.5667625,23.3609669 L68.0910792,23.3609669 L68.0910792,10.3333019 L74.4712936,23.3609669 L74.4712936,23.3609669 Z M53.9183573,23.3609669 L59.051499,23.3609669 L59.051499,2.74195071 L53.9183573,2.74195071 L53.9183573,23.3609669 Z M47.477034,15.4342366 L47.4430846,15.3753187 L47.492877,15.3413275 C49.2061875,13.9771504 50.1499795,11.8674346 50.1499795,9.40194505 C50.1499795,4.44377301 45.9108373,2.67850061 41.9410267,2.67850061 C39.9153822,2.67850061 36.8689938,2.67850061 35.1126808,2.73741856 L35.1126808,23.3609669 L40.2503491,23.3609669 L40.2503491,17.0658106 L41.8120192,17.0658106 C42.1243532,17.0658106 42.4185809,17.0544802 42.6901757,17.0363516 L42.7331782,17.0318195 L42.7558111,17.0658106 C43.6090714,18.4277217 44.6954506,20.6212822 45.0439973,23.3609669 C46.1711157,23.3609669 47.0470089,23.3609669 47.7848414,23.365499 C48.328031,23.365499 48.7965321,23.365499 49.2356103,23.365499 L49.2378736,23.365499 C49.7312708,23.365499 50.1861921,23.365499 50.6660096,23.3609669 C50.1907187,20.2065905 48.4660917,17.0454159 47.477034,15.4342366 L47.477034,15.4342366 Z M44.6999772,10.1225569 C44.6999772,12.2504013 43.7991878,13.1998867 41.7803331,13.1998867 C41.1352955,13.1998867 40.7075337,13.1998867 40.3182478,13.1681616 L40.2503491,13.1636295 L40.2503491,6.58521386 L40.3182478,6.58068171 C40.7731691,6.54895666 41.366151,6.54895666 41.8437052,6.54895666 C44.222423,6.54895666 44.6999772,7.91539987 44.6999772,10.1225569 L44.6999772,10.1225569 Z M32.5325302,9.32943065 C32.5325302,5.03975073 29.8165822,2.67850061 24.8826101,2.67850061 C22.8569655,2.67850061 19.8105772,2.67850061 18.0542642,2.73741856 L18.0542642,23.3609669 L23.1919325,23.3609669 L23.1919325,17.0658106 L24.7536026,17.0658106 C27.0915811,17.0658106 32.5325302,16.3134737 32.5325302,9.32943065 L32.5325302,9.32943065 Z M27.6415606,10.1225569 C27.6415606,12.2504013 26.7407712,13.1998867 24.7219165,13.1998867 C24.0746156,13.1998867 23.649117,13.1998867 23.2575679,13.1681616 L23.1919325,13.1613634 L23.1919325,6.58521386 L23.2598312,6.58068171 C23.7147525,6.54895666 24.3077344,6.54895666 24.7852886,6.54895666 C27.1640064,6.54895666 27.6415606,7.91766594 27.6415606,10.1225569 L27.6415606,10.1225569 Z M5.91850331,6.65999433 C5.91850331,5.5042961 6.66765229,4.33726749 8.34022359,4.33726749 C9.55334702,4.33726749 10.9927995,4.74062884 12.8668036,5.6040034 L14.7317545,1.87857615 C12.565786,0.614106317 10.3432352,0 7.94414784,0 C3.28629706,0 0.504713666,2.50174677 0.504713666,6.68945331 C0.504713666,10.8771599 3.75706137,12.4951374 6.37116131,13.7935983 C8.26779831,14.7362855 9.90415697,15.5520725 9.90415697,17.0862053 C9.90415697,18.4095931 8.72498289,19.3024266 6.97093315,19.3024266 C5.56543007,19.3024266 3.84985626,18.7834954 1.86947753,17.7637617 L0,21.7588519 C2.50546201,23.1751487 4.7913849,23.8096497 7.40548483,23.8096497 C12.2443988,23.8096497 15.1346201,21.128883 15.1346201,16.6375224 C15.1346201,12.3908979 11.8845357,10.8658295 9.27269906,9.64214899 C7.47338353,8.79916911 5.91850331,8.06949297 5.91850331,6.65999433 L5.91850331,6.65999433 Z" id="Fill-1"></path>
            <path d="M240.630728,19.3273534 L240.630728,14.7952035 L247.29159,14.7952035 L247.29159,10.8046455 L240.630728,10.8046455 L240.630728,6.73477481 L247.907205,6.73477481 L247.907205,2.71022566 L235.712535,2.71022566 L235.712535,19.7057879 C235.712535,19.7239165 235.685439,21.3373619 236.755975,22.4432065 C237.425909,23.1388915 238.381018,23.4923992 239.591878,23.4991974 C243.330833,23.5195921 247.425124,23.3836276 248,23.3609669 L248,19.3273534 L240.630728,19.3273534 L240.630728,19.3273534 Z M229.522501,15.4342366 L229.490815,15.3775847 L229.540607,15.3413275 C231.253917,13.9771504 232.197709,11.8674346 232.197709,9.40194505 C232.197709,4.44377301 227.958567,2.67850061 223.988757,2.67850061 C221.963112,2.67850061 218.916724,2.67850061 217.158147,2.73741856 L217.158147,23.3609669 L222.298079,23.3609669 L222.298079,17.0658106 L223.859749,17.0658106 C224.172083,17.0658106 224.466311,17.0544802 224.737906,17.0363516 L224.776381,17.0318195 L224.801278,17.0658106 C225.654538,18.4277217 226.74318,20.6212822 227.091727,23.3609669 C228.218846,23.3609669 229.094739,23.3609669 229.832571,23.365499 C230.375761,23.365499 230.844262,23.365499 231.28334,23.365499 C231.776737,23.365499 232.236185,23.365499 232.713739,23.3609669 C232.236185,20.2065905 230.516085,17.0454159 229.522501,15.4342366 L229.522501,15.4342366 Z M226.747707,10.124823 C226.747707,12.2504013 225.844654,13.1998867 223.828063,13.1998867 C223.183025,13.1998867 222.757527,13.1998867 222.365978,13.1681616 L222.298079,13.1636295 L222.298079,6.58521386 L222.365978,6.58068171 C222.820899,6.54895666 223.413881,6.54895666 223.891435,6.54895666 C226.270153,6.54895666 226.747707,7.91766594 226.747707,10.124823 L226.747707,10.124823 Z M213.360347,15.9667642 L213.360347,2.71022566 L208.041615,2.71022566 L208.041615,16.4607686 C208.041615,18.5750165 207.919398,19.8689453 205.55426,19.8689453 C203.286443,19.8689453 202.90621,18.8084222 202.90621,16.4290435 L202.90621,2.71022566 L197.587479,2.71022566 L197.587479,16.7077707 C197.587479,21.6342177 199.972987,23.8300444 205.327931,23.8300444 C210.809619,23.8300444 213.360347,21.3328298 213.360347,15.9667642 L213.360347,15.9667642 Z M190.546384,6.92059296 L194.495825,6.92059296 L194.495825,2.71022566 L180.565275,2.71022566 L180.565275,6.92059296 L185.19823,6.92059296 L185.19823,23.3609669 L190.546384,23.3609669 L190.546384,6.92059296 L190.546384,6.92059296 Z M174.850468,23.3609669 L180.375159,23.3609669 L175.418554,2.71022566 L167.406507,2.71022566 L162.384266,23.3609669 L167.623783,23.3609669 L168.363879,20.0819564 L174.110372,20.0819564 L174.850468,23.3609669 L174.850468,23.3609669 Z M173.506073,16.1820414 L168.965914,16.1820414 L171.104723,7.20158625 L171.317472,7.20158625 L171.331052,7.25597205 L173.506073,16.1820414 L173.506073,16.1820414 Z M153.351476,23.3609669 L159.426146,23.3609669 L159.426146,0.210744972 L154.485384,0.210744972 L154.689081,16.3610613 L147.131955,0.210744972 L141.134237,0.210744972 L141.134237,23.3609669 L145.891672,23.3609669 L145.850933,7.38513832 L145.988994,7.67292985 L153.351476,23.3609669 L153.351476,23.3609669 Z" id="Fill-4"></path>
        </g>
    </g>
</svg>